<svg width="23" height="22" viewBox="0 0 23 22" fill="none" xmlns="http://www.w3.org/2000/svg">
<path d="M11.5 0.5C17.57 0.5 22.5 5.24686 22.5 11C22.5 16.7531 17.57 21.5 11.5 21.5C5.42996 21.5 0.5 16.7531 0.5 11C0.5 5.24686 5.42996 0.5 11.5 0.5ZM8.96094 13.6377C7.36867 14.1137 5.85759 14.9734 4.7334 16.2305C4.42572 16.5248 4.30342 16.9084 4.34277 17.2852C4.38088 17.6496 4.56559 17.9842 4.8291 18.2363L4.84082 18.2471L4.85254 18.2568C6.56884 19.7054 8.98216 20.667 11.5 20.667C14.0088 20.667 16.4128 19.7113 18.1279 18.2715L18.1289 18.2725C18.4676 18.0133 18.6745 17.6554 18.6953 17.2598C18.7158 16.8682 18.5503 16.5029 18.2686 16.2324C17.1506 14.9798 15.7336 14.1147 14.0312 13.6357L13.8496 13.584L13.6797 13.666C12.9776 14.0017 12.2844 14.167 11.5 14.167C10.7156 14.167 10.0224 14.0017 9.32031 13.666L9.14551 13.582L8.96094 13.6377ZM11.5 3.16699C9.03848 3.16699 7.16699 5.49111 7.16699 8.25C7.16699 11.0089 9.03848 13.333 11.5 13.333C13.9615 13.333 15.833 11.0089 15.833 8.25C15.833 5.49111 13.9615 3.16699 11.5 3.16699Z" stroke="white"/>
</svg>
