<svg width="292" height="216" viewBox="0 0 292 216" fill="none" xmlns="http://www.w3.org/2000/svg">
<g opacity="0.8">
<g filter="url(#filter0_f_2809_828)">
<circle cx="134.5" cy="113.5" r="57.5" fill="#67C9F7" fill-opacity="0.62"/>
</g>
<path d="M187 66.9677C186.995 62.7343 185.311 58.6755 182.318 55.682C179.324 52.6885 175.266 51.0047 171.032 51H92.9677C88.7343 51.0047 84.6755 52.6885 81.682 55.682C78.6885 58.6755 77.0047 62.7343 77 66.9677V74.0645C77.0079 74.4368 77.1361 74.7966 77.3655 75.09L77.3389 75.1077L90.7748 93.5806L77.3389 112.054L77.3655 112.071C77.1361 112.365 77.0079 112.724 77 113.097V155.677C77 157.089 77.5608 158.443 78.5589 159.441C79.5571 160.439 80.9109 161 82.3226 161H181.677C183.089 161 184.443 160.439 185.441 159.441C186.439 158.443 187 157.089 187 155.677V113.097C186.992 112.724 186.864 112.365 186.635 112.071L186.661 112.054L173.225 93.5806L186.661 75.1077L186.635 75.09C186.864 74.7966 186.992 74.4368 187 74.0645V66.9677ZM137.323 65.1935H126.677C126.207 65.1935 125.756 65.3805 125.423 65.7132C125.09 66.0459 124.903 66.4972 124.903 66.9677V72.2903H80.6903C81.1166 69.337 82.5919 66.6359 84.8464 64.6811C87.1009 62.7264 89.9838 61.6487 92.9677 61.6452H171.032C174.016 61.6487 176.899 62.7264 179.154 64.6811C181.408 66.6359 182.883 69.337 183.31 72.2903H139.097V66.9677C139.097 66.4972 138.91 66.0459 138.577 65.7132C138.244 65.3805 137.793 65.1935 137.323 65.1935ZM130.226 77.6129V82.4423C129.688 82.1333 129.241 81.6884 128.93 81.1521C128.618 80.6159 128.453 80.0072 128.452 79.3871V68.7419H135.548V79.3871C135.547 80.0072 135.382 80.6159 135.07 81.1521C134.759 81.6884 134.312 82.1333 133.774 82.4423V77.6129H130.226ZM93.8708 95.3548H121.855C121.381 96.0141 120.973 96.719 120.638 97.459C118.398 96.9312 116.055 97.0383 113.872 97.7682C111.689 98.4981 109.753 99.8219 108.281 101.591C106.536 100.881 104.652 100.578 102.773 100.705C100.894 100.832 99.0681 101.386 97.4347 102.324C95.8013 103.262 94.4031 104.56 93.3463 106.119C92.2894 107.678 91.6018 109.458 91.3355 111.323H82.2587L93.8708 95.3548ZM140.552 100.127C140.617 100.369 140.733 100.593 140.892 100.786C141.05 100.979 141.248 101.137 141.471 101.248C141.695 101.36 141.94 101.423 142.189 101.434C142.439 101.444 142.688 101.402 142.92 101.309C144.835 100.543 146.958 100.471 148.92 101.106C150.883 101.74 152.562 103.041 153.666 104.783C153.911 105.166 154.293 105.44 154.733 105.549C155.174 105.659 155.64 105.595 156.035 105.372C157.253 104.686 158.616 104.297 160.012 104.238C161.409 104.178 162.799 104.449 164.071 105.03C165.343 105.61 166.46 106.482 167.33 107.576C168.201 108.669 168.8 109.953 169.081 111.323H94.9194C95.1996 109.953 95.7994 108.67 96.6698 107.576C97.5403 106.483 98.6567 105.611 99.9282 105.031C101.2 104.451 102.59 104.179 103.987 104.238C105.383 104.298 106.745 104.686 107.963 105.372C108.358 105.595 108.824 105.659 109.265 105.549C109.705 105.44 110.087 105.166 110.332 104.783C111.436 103.041 113.115 101.74 115.078 101.106C117.04 100.471 119.163 100.543 121.078 101.309C121.31 101.402 121.559 101.444 121.809 101.434C122.059 101.423 122.303 101.36 122.527 101.248C122.75 101.137 122.948 100.979 123.107 100.786C123.265 100.593 123.381 100.369 123.447 100.127C123.955 98.2482 125.068 96.5886 126.613 95.4052C128.159 94.2218 130.052 93.5805 131.998 93.5805C133.945 93.5805 135.837 94.2218 137.383 95.4052C138.929 96.5886 140.044 98.2482 140.552 100.127ZM183.452 155.677C183.452 156.148 183.265 156.599 182.932 156.932C182.599 157.265 182.148 157.452 181.677 157.452H82.3226C81.852 157.452 81.4008 157.265 81.068 156.932C80.7353 156.599 80.5484 156.148 80.5484 155.677V114.871H183.452V155.677ZM181.741 111.323H172.665C172.398 109.458 171.711 107.678 170.654 106.119C169.597 104.56 168.199 103.262 166.565 102.324C164.932 101.386 163.106 100.832 161.227 100.705C159.348 100.578 157.464 100.881 155.719 101.591C154.246 99.8207 152.309 98.4961 150.125 97.7661C147.941 97.0362 145.596 96.9298 143.355 97.459C143.022 96.7193 142.617 96.0144 142.145 95.3548H170.129L181.741 111.323ZM170.129 91.8064H138.327C136.42 90.646 134.232 90.0322 132 90.0322C129.768 90.0322 127.58 90.646 125.673 91.8064H93.8708L82.2587 75.8387H124.903V79.3871C124.903 81.2693 125.651 83.0744 126.982 84.4053C128.313 85.7362 130.118 86.4839 132 86.4839C133.882 86.4839 135.687 85.7362 137.018 84.4053C138.349 83.0744 139.097 81.2693 139.097 79.3871V75.8387H181.741L170.129 91.8064ZM171.032 58.0968H92.9677C90.7161 58.0983 88.4905 58.5774 86.4377 59.5025C84.3849 60.4277 82.5518 61.7778 81.0594 63.4637C81.8184 60.8928 83.3878 58.6359 85.5337 57.0294C87.6796 55.4228 90.2871 54.5526 92.9677 54.5484H171.032C173.713 54.5526 176.32 55.4228 178.466 57.0294C180.612 58.6359 182.182 60.8928 182.941 63.4637C181.448 61.7778 179.615 60.4277 177.562 59.5025C175.51 58.5774 173.284 58.0983 171.032 58.0968Z" fill="white"/>
<path d="M85.8738 148.578C86.8149 148.578 87.7174 148.952 88.3829 149.618C89.0483 150.283 89.4222 151.186 89.4222 152.127C89.4222 152.597 89.6091 153.048 89.9418 153.381C90.2746 153.714 90.7258 153.901 91.1964 153.901H172.809C173.28 153.901 173.731 153.714 174.064 153.381C174.397 153.048 174.583 152.597 174.583 152.127C174.583 151.186 174.957 150.283 175.623 149.618C176.288 148.952 177.191 148.578 178.132 148.578C178.602 148.578 179.054 148.391 179.386 148.059C179.719 147.726 179.906 147.275 179.906 146.804V125.514C179.906 125.043 179.719 124.592 179.386 124.259C179.054 123.926 178.602 123.74 178.132 123.74C177.191 123.74 176.288 123.366 175.623 122.7C174.957 122.035 174.583 121.132 174.583 120.191C174.583 119.721 174.397 119.269 174.064 118.937C173.731 118.604 173.28 118.417 172.809 118.417H91.1964C90.7258 118.417 90.2746 118.604 89.9418 118.937C89.6091 119.269 89.4222 119.721 89.4222 120.191C89.4222 121.132 89.0483 122.035 88.3829 122.7C87.7174 123.366 86.8149 123.74 85.8738 123.74C85.4033 123.74 84.952 123.926 84.6193 124.259C84.2865 124.592 84.0996 125.043 84.0996 125.514V146.804C84.0996 147.275 84.2865 147.726 84.6193 148.059C84.952 148.391 85.4033 148.578 85.8738 148.578ZM126.68 121.965H137.325V127.288C137.325 128.7 136.765 130.053 135.766 131.052C134.768 132.05 133.414 132.611 132.003 132.611C130.591 132.611 129.237 132.05 128.239 131.052C127.241 130.053 126.68 128.7 126.68 127.288V121.965ZM87.648 127.064C88.8744 126.745 89.9934 126.104 90.8894 125.207C91.7854 124.311 92.4261 123.192 92.7453 121.965H123.132V127.288C123.132 129.641 124.066 131.897 125.73 133.561C127.394 135.224 129.65 136.159 132.003 136.159C134.356 136.159 136.612 135.224 138.276 133.561C139.939 131.897 140.874 129.641 140.874 127.288V121.965H171.26C171.58 123.192 172.22 124.311 173.116 125.207C174.012 126.104 175.131 126.745 176.358 127.064V145.253C175.131 145.573 174.012 146.214 173.116 147.11C172.22 148.007 171.58 149.126 171.26 150.352H92.7453C92.4261 149.126 91.7854 148.007 90.8894 147.11C89.9934 146.214 88.8744 145.573 87.648 145.253V127.064Z" fill="white"/>
</g>
<defs>
<filter id="filter0_f_2809_828" x="-23" y="-44" width="315" height="315" filterUnits="userSpaceOnUse" color-interpolation-filters="sRGB">
<feFlood flood-opacity="0" result="BackgroundImageFix"/>
<feBlend mode="normal" in="SourceGraphic" in2="BackgroundImageFix" result="shape"/>
<feGaussianBlur stdDeviation="50" result="effect1_foregroundBlur_2809_828"/>
</filter>
</defs>
</svg>
