<svg width="22" height="21" viewBox="0 0 22 21" fill="none" xmlns="http://www.w3.org/2000/svg">
<path d="M10.8809 0.508789C10.9827 0.487261 11.1024 0.500948 11.2354 0.608398C11.3012 0.677953 11.3168 0.694013 11.3809 0.761719L15.6543 7.10449L15.9404 7.52832L16.3574 7.23438L20.6357 4.21973C20.792 4.12199 20.9397 4.10412 21.0527 4.12793C21.1594 4.15048 21.269 4.21772 21.3545 4.36328C21.4447 4.55486 21.4953 4.67873 21.498 4.86523L19.8701 19.9209C19.796 20.2934 19.5421 20.4763 19.3418 20.4766H2.6748C2.47318 20.4766 2.21595 20.2914 2.14355 19.9141L0.512695 4.82715L0.511719 4.81445L0.509766 4.80273L0.5 4.65918C0.508724 4.36169 0.698055 4.15238 0.891602 4.08789C1.02524 4.098 1.12711 4.14255 1.28906 4.22754L5.55664 7.23438L5.97363 7.52832L6.25879 7.10449L10.5469 0.741211C10.6354 0.616549 10.7611 0.534188 10.8809 0.508789ZM10.957 9.56641C9.5306 9.56641 8.41214 10.7884 8.41211 12.2266C8.41211 13.6648 9.53058 14.8867 10.957 14.8867C12.3833 14.8866 13.502 13.6647 13.502 12.2266C13.5019 10.7885 12.3833 9.56656 10.957 9.56641Z" stroke="white"/>
</svg>
