<svg width="24" height="22" viewBox="0 0 24 22" fill="none" xmlns="http://www.w3.org/2000/svg">
<path d="M8.74685 15.9879C12.6048 15.7688 15.6671 12.5002 15.6671 8.49993C15.6671 4.35783 12.3838 1 8.33355 1C4.28334 1 1 4.35783 1 8.49993C1 9.9758 1.41671 11.352 2.13656 12.5123L1.61829 14.1024L1.61747 14.1048C1.41896 14.7138 1.31966 15.0184 1.39037 15.2212C1.45198 15.3979 1.58874 15.5372 1.76152 15.6002C1.95913 15.6723 2.25495 15.5714 2.84646 15.3698L2.85487 15.3672L4.41015 14.8371C5.54473 15.5733 6.8905 15.9996 8.33363 15.9996C8.4723 15.9996 8.61007 15.9957 8.74685 15.9879ZM8.74685 15.9879C8.74695 15.9882 8.74675 15.9876 8.74685 15.9879ZM8.74685 15.9879C9.75024 18.9072 12.4698 21 15.6673 21C17.1104 21 18.4559 20.5733 19.5904 19.8371L21.1453 20.3671L21.1484 20.3678C21.7438 20.5707 22.0422 20.6725 22.2405 20.6002C22.4132 20.5372 22.5483 20.3978 22.6099 20.2211C22.6807 20.0181 22.5817 19.7131 22.3826 19.1024L21.8643 17.5123L22.0379 17.2181C22.6508 16.1223 23 14.8528 23 13.4999C23 9.3578 19.7173 5.99995 15.6671 5.99995L15.3926 6.00513L15.2541 6.01205" stroke="white" stroke-linecap="round" stroke-linejoin="round"/>
</svg>
