<svg width="63" height="63" viewBox="0 0 63 63" fill="none" xmlns="http://www.w3.org/2000/svg">
<g filter="url(#filter0_f_3003_21)">
<circle cx="31.5" cy="31.5" r="11.5" fill="#67C9F7" fill-opacity="0.75"/>
</g>
<path d="M27.7468 35.9879C31.6048 35.7688 34.6671 32.5002 34.6671 28.4999C34.6671 24.3578 31.3838 21 27.3336 21C23.2833 21 20 24.3578 20 28.4999C20 29.9758 20.4167 31.352 21.1366 32.5123L20.6183 34.1024L20.6175 34.1048C20.419 34.7138 20.3197 35.0184 20.3904 35.2212C20.452 35.3979 20.5887 35.5372 20.7615 35.6002C20.9591 35.6723 21.2549 35.5714 21.8465 35.3698L21.8549 35.3672L23.4102 34.8371C24.5447 35.5733 25.8905 35.9996 27.3336 35.9996C27.4723 35.9996 27.6101 35.9957 27.7468 35.9879ZM27.7468 35.9879C27.747 35.9882 27.7467 35.9876 27.7468 35.9879ZM27.7468 35.9879C28.7502 38.9072 31.4698 41 34.6673 41C36.1104 41 37.4559 40.5733 38.5904 39.8371L40.1453 40.3671L40.1484 40.3678C40.7438 40.5707 41.0422 40.6725 41.2405 40.6002C41.4132 40.5372 41.5483 40.3978 41.6099 40.2211C41.6807 40.0181 41.5817 39.7131 41.3826 39.1024L40.8643 37.5123L41.0379 37.2181C41.6508 36.1223 42 34.8528 42 33.4999C42 29.3578 38.7173 26 34.6671 26L34.3926 26.0051L34.2541 26.012" stroke="white" stroke-linecap="round" stroke-linejoin="round"/>
<defs>
<filter id="filter0_f_3003_21" x="0" y="0" width="63" height="63" filterUnits="userSpaceOnUse" color-interpolation-filters="sRGB">
<feFlood flood-opacity="0" result="BackgroundImageFix"/>
<feBlend mode="normal" in="SourceGraphic" in2="BackgroundImageFix" result="shape"/>
<feGaussianBlur stdDeviation="10" result="effect1_foregroundBlur_3003_21"/>
</filter>
</defs>
</svg>
