<svg width="63" height="63" viewBox="0 0 63 63" fill="none" xmlns="http://www.w3.org/2000/svg">
<g filter="url(#filter0_f_3003_20)">
<circle cx="31.5" cy="31.5" r="11.5" fill="#67C9F7" fill-opacity="0.75"/>
</g>
<path d="M40 36.3283V29.5388C40 28.8849 39.9994 28.5577 39.9182 28.2535C39.8462 27.9838 39.7281 27.7286 39.5682 27.498C39.3878 27.2378 39.1369 27.022 38.6343 26.5914L32.6343 21.4515C31.701 20.6521 31.2344 20.2525 30.7092 20.1005C30.2465 19.9665 29.7533 19.9665 29.2905 20.1005C28.7658 20.2524 28.2998 20.6516 27.368 21.4498L21.366 26.5914C20.8633 27.022 20.6126 27.2378 20.4321 27.498C20.2722 27.7286 20.1532 27.9838 20.0812 28.2535C20 28.5577 20 28.8849 20 29.5388V36.3283C20 37.4687 20 38.0387 20.1903 38.4885C20.444 39.0882 20.9304 39.5653 21.543 39.8137C22.0024 40 22.5848 40 23.7497 40C24.9145 40 25.4976 40 25.957 39.8137C26.5696 39.5653 27.0558 39.0883 27.3096 38.4886C27.4999 38.0388 27.5 37.4686 27.5 36.3282V35.1044C27.5 33.7526 28.6193 32.6568 30 32.6568C31.3807 32.6568 32.5 33.7526 32.5 35.1044V36.3282C32.5 37.4686 32.5 38.0388 32.6903 38.4886C32.944 39.0883 33.4304 39.5653 34.043 39.8137C34.5024 40 35.0848 40 36.2497 40C37.4145 40 37.9976 40 38.457 39.8137C39.0696 39.5653 39.5558 39.0882 39.8096 38.4885C39.9999 38.0387 40 37.4687 40 36.3283Z" stroke="white" stroke-linecap="round" stroke-linejoin="round"/>
<defs>
<filter id="filter0_f_3003_20" x="0" y="0" width="63" height="63" filterUnits="userSpaceOnUse" color-interpolation-filters="sRGB">
<feFlood flood-opacity="0" result="BackgroundImageFix"/>
<feBlend mode="normal" in="SourceGraphic" in2="BackgroundImageFix" result="shape"/>
<feGaussianBlur stdDeviation="10" result="effect1_foregroundBlur_3003_20"/>
</filter>
</defs>
</svg>
