<svg width="19" height="21" viewBox="0 0 19 21" fill="none" xmlns="http://www.w3.org/2000/svg">
<path d="M12.5 9.86426C15.3493 9.86426 17.625 12.1385 17.625 14.9834C17.625 17.8283 15.3494 20.1025 12.5 20.1025C9.65062 20.1025 7.375 17.8283 7.375 14.9834C7.37504 12.1385 9.65065 9.86426 12.5 9.86426ZM1.875 0.5H11.875C12.5994 0.5 13.25 1.15081 13.25 1.87305V7.64062C12.9676 7.61481 12.6967 7.61621 12.5 7.61621C8.4744 7.61621 5.12505 10.9609 5.125 14.9834C5.125 16.1459 5.37817 17.2297 5.88184 18.2295H1.875C1.15063 18.2295 0.500018 17.5787 0.5 16.8564V1.87305L0.507812 1.73828C0.582069 1.07179 1.19598 0.5 1.875 0.5ZM13.2285 11.7578C12.7833 11.3131 12.0917 11.3131 11.6465 11.7578L9.15625 14.1211L9 14.2695V14.3555C8.98917 14.3703 8.97615 14.3851 8.96582 14.4023C8.90853 14.4978 8.87506 14.6097 8.875 14.7334V15.2334C8.87503 15.3571 8.90855 15.469 8.96582 15.5645C8.97598 15.5814 8.98935 15.5957 9 15.6104V15.6904L9.14648 15.8369L11.6465 18.334C12.0917 18.7787 12.7833 18.7787 13.2285 18.334C13.674 17.889 13.673 17.197 13.2275 16.752L12.6367 16.1074H15C15.301 16.1074 15.5908 16.0056 15.8066 15.79C16.0225 15.5744 16.125 15.2845 16.125 14.9834C16.125 14.6823 16.0225 14.3923 15.8066 14.1768C15.5909 13.9613 15.3009 13.8594 15 13.8594H12.708L13.2285 13.3398C13.674 12.8948 13.674 12.2028 13.2285 11.7578ZM3.125 7.61621C2.63655 7.61621 2.19041 7.78067 1.86523 8.10547C1.5401 8.43024 1.37509 8.87604 1.375 9.36426C1.375 9.85263 1.54001 10.2992 1.86523 10.624C2.1904 10.9488 2.63659 11.1133 3.125 11.1133C3.61341 11.1133 4.0596 10.9488 4.38477 10.624C4.70999 10.2992 4.875 9.85263 4.875 9.36426C4.87491 8.87604 4.7099 8.43024 4.38477 8.10547C4.05959 7.78067 3.61345 7.61621 3.125 7.61621Z" stroke="white"/>
</svg>
