<svg width="63" height="63" viewBox="0 0 63 63" fill="none" xmlns="http://www.w3.org/2000/svg">
<g filter="url(#filter0_f_3003_22)">
<circle cx="31.5" cy="31.5" r="11.5" fill="#67C9F7" fill-opacity="0.75"/>
</g>
<path d="M23.3545 31.0952H42.6455M30.9694 25L28.9387 31.0952L33 42.7776L37.0613 31.0952L35.0306 25M33.624 42.5363L42.7198 31.6154C42.874 31.4303 42.9511 31.3378 42.9805 31.2345C43.0065 31.1434 43.0065 31.0469 42.9805 30.9558C42.9511 30.8525 42.874 30.76 42.7198 30.5749L38.3201 25.2924C38.2306 25.1849 38.1858 25.1312 38.131 25.0926C38.0824 25.0583 38.0281 25.0329 37.9707 25.0174C37.9059 25 37.836 25 37.6961 25H28.3039C28.164 25 28.0941 25 28.0293 25.0174C27.9719 25.0329 27.9176 25.0583 27.869 25.0926C27.8142 25.1312 27.7694 25.1849 27.6799 25.2924L23.2802 30.5749C23.126 30.76 23.0489 30.8525 23.0195 30.9558C22.9935 31.0469 22.9935 31.1434 23.0195 31.2345C23.0489 31.3378 23.126 31.4303 23.2802 31.6154L32.376 42.5363C32.5903 42.7936 32.6974 42.9222 32.8257 42.9691C32.9383 43.0103 33.0617 43.0103 33.1743 42.9691C33.3026 42.9222 33.4097 42.7936 33.624 42.5363Z" stroke="white" stroke-linecap="round" stroke-linejoin="round"/>
<defs>
<filter id="filter0_f_3003_22" x="0" y="0" width="63" height="63" filterUnits="userSpaceOnUse" color-interpolation-filters="sRGB">
<feFlood flood-opacity="0" result="BackgroundImageFix"/>
<feBlend mode="normal" in="SourceGraphic" in2="BackgroundImageFix" result="shape"/>
<feGaussianBlur stdDeviation="10" result="effect1_foregroundBlur_3003_22"/>
</filter>
</defs>
</svg>
