<svg width="20" height="20" viewBox="0 0 20 20" fill="none" xmlns="http://www.w3.org/2000/svg">
<path d="M7.74121 0C12.0165 0.00010848 15.4832 3.46589 15.4834 7.74121C15.4833 9.69895 14.7542 11.4853 13.5557 12.8486L18.958 18.25C19.1533 18.4453 19.1533 18.7627 18.958 18.958C18.7627 19.1533 18.4453 19.1533 18.25 18.958L12.8486 13.5557C11.4853 14.7542 9.69895 15.4833 7.74121 15.4834C3.46589 15.4832 0.00010848 12.0165 0 7.74121C0.00019145 3.46594 3.46594 0.00019145 7.74121 0ZM7.74121 1C4.01823 1.00019 1.00019 4.01823 1 7.74121C1.00011 11.4643 4.01818 14.4832 7.74121 14.4834C11.4643 14.4833 14.4833 11.4643 14.4834 7.74121C14.4832 4.01818 11.4643 1.00011 7.74121 1Z" fill="#C8D0D8"/>
</svg>
