<svg width="44" height="44" viewBox="0 0 44 44" fill="none" xmlns="http://www.w3.org/2000/svg">
<g filter="url(#filter0_f_3030_17)">
<circle cx="21.9997" cy="21.9997" r="6.92308" fill="#67C9F7" fill-opacity="0.49"/>
</g>
<path d="M29.2283 19.3641L28.9112 19.1896C28.862 19.1625 28.8378 19.1489 28.814 19.1348C28.5776 18.9947 28.3783 18.801 28.2329 18.5694C28.2183 18.546 28.2045 18.5216 28.1763 18.4733C28.1481 18.425 28.1338 18.4006 28.1207 18.3764C27.9903 18.1354 27.9197 17.8668 27.9155 17.5934C27.9151 17.5659 27.9152 17.5378 27.9161 17.482L27.9223 17.1177C27.9323 16.5346 27.9372 16.2422 27.8544 15.9798C27.7809 15.7467 27.6579 15.532 27.4936 15.3498C27.3078 15.1438 27.0508 14.9969 26.5361 14.7034L26.1086 14.4596C25.5954 14.1669 25.3387 14.0205 25.0662 13.9647C24.8251 13.9153 24.5764 13.9176 24.3362 13.971C24.0651 14.0312 23.8116 14.1814 23.3049 14.4817L23.3021 14.483L22.9957 14.6645C22.9473 14.6932 22.9228 14.7077 22.8985 14.7211C22.6576 14.8536 22.3887 14.9269 22.1132 14.9357C22.0854 14.9365 22.0571 14.9365 22.0007 14.9365C21.9445 14.9365 21.9151 14.9365 21.8874 14.9357C21.6113 14.9269 21.3418 14.8532 21.1005 14.7201C21.0762 14.7067 21.0521 14.6921 21.0036 14.6632L20.6953 14.4801C20.1852 14.177 19.9297 14.0252 19.6571 13.9647C19.416 13.9112 19.1664 13.9097 18.9244 13.9597C18.6512 14.0162 18.3945 14.1636 17.8809 14.4586L17.8787 14.4596L17.4565 14.7021L17.4518 14.7049C16.9429 14.9972 16.6878 15.1437 16.5037 15.3488C16.3403 15.5308 16.2181 15.7452 16.145 15.9777C16.0624 16.2405 16.0668 16.5335 16.0767 17.1193L16.0829 17.4831C16.0839 17.5382 16.0855 17.5656 16.0851 17.5927C16.081 17.8666 16.0095 18.1358 15.8787 18.3772C15.8657 18.4011 15.8518 18.425 15.8239 18.4727C15.7961 18.5204 15.7826 18.5441 15.7681 18.5672C15.6221 18.8001 15.4219 18.9948 15.184 19.1352C15.1605 19.1491 15.1357 19.1625 15.0869 19.1892L14.7739 19.3608C14.2531 19.6464 13.9928 19.7894 13.8034 19.9928C13.6358 20.1727 13.5092 20.3861 13.4319 20.6186C13.3446 20.8814 13.3446 21.176 13.346 21.7652L13.3471 22.2468C13.3484 22.8321 13.3503 23.1246 13.4378 23.3855C13.5153 23.6164 13.641 23.8286 13.8076 24.0074C13.996 24.2096 14.2537 24.3517 14.7705 24.6362L15.0808 24.807C15.1336 24.836 15.1601 24.8504 15.1856 24.8656C15.4213 25.006 15.6199 25.2003 15.7648 25.4318C15.7804 25.4569 15.7954 25.4828 15.8255 25.5348C15.8551 25.586 15.8703 25.6117 15.884 25.6374C16.011 25.8753 16.079 26.1396 16.0836 26.4086C16.0841 26.4377 16.0837 26.4671 16.0827 26.5262L16.0767 26.8753C16.0667 27.4631 16.0623 27.7573 16.1455 28.0208C16.219 28.254 16.3419 28.4686 16.5062 28.6509C16.6919 28.8568 16.9494 29.0037 17.4641 29.2972L17.8915 29.5409C18.4047 29.8336 18.6613 29.9798 18.9337 30.0356C19.1748 30.085 19.4237 30.0831 19.6639 30.0297C19.9354 29.9694 20.1897 29.8187 20.6979 29.5176L21.0042 29.3361C21.0526 29.3074 21.0772 29.293 21.1014 29.2796C21.3424 29.147 21.611 29.0734 21.8865 29.0646C21.9143 29.0637 21.9425 29.0637 21.999 29.0637C22.0556 29.0637 22.0838 29.0637 22.1117 29.0646C22.3878 29.0734 22.6581 29.1473 22.8994 29.2804C22.9206 29.2921 22.9419 29.3048 22.9792 29.327L23.3048 29.5205C23.8151 29.8236 24.07 29.9749 24.3426 30.0354C24.5837 30.089 24.8336 30.0912 25.0755 30.0412C25.3486 29.9847 25.6059 29.8369 26.1191 29.5421L26.5477 29.296C27.0569 29.0035 27.3122 28.8569 27.4964 28.6517C27.6599 28.4697 27.7822 28.2554 27.8553 28.0229C27.9373 27.762 27.9324 27.4712 27.9225 26.8939L27.9161 26.5174C27.9152 26.4623 27.9151 26.4349 27.9155 26.4078C27.9196 26.1339 27.9899 25.8645 28.1207 25.6231C28.1337 25.5993 28.1477 25.5752 28.1755 25.5276C28.2033 25.4799 28.2177 25.4561 28.2322 25.4331C28.3782 25.2002 28.5786 25.0053 28.8165 24.8649C28.8398 24.8512 28.8637 24.838 28.9113 24.8119L28.9129 24.8112L29.2259 24.6395C29.7467 24.3539 30.0076 24.2108 30.197 24.0074C30.3646 23.8275 30.491 23.6144 30.5683 23.3819C30.6551 23.1207 30.6544 22.8278 30.6531 22.2454L30.652 21.7535C30.6506 21.1682 30.6499 20.8758 30.5623 20.6148C30.4849 20.3839 30.3585 20.1718 30.1919 19.9929C30.0037 19.7909 29.7456 19.6489 29.2298 19.3649L29.2283 19.3641Z" stroke="white" stroke-linecap="round" stroke-linejoin="round"/>
<path d="M18.5369 22.0003C18.5369 23.893 20.0873 25.4272 21.9998 25.4272C23.9123 25.4272 25.4627 23.893 25.4627 22.0003C25.4627 20.1077 23.9123 18.5734 21.9998 18.5734C20.0873 18.5734 18.5369 20.1077 18.5369 22.0003Z" stroke="white" stroke-linecap="round" stroke-linejoin="round"/>
<defs>
<filter id="filter0_f_3030_17" x="0.0766602" y="0.0766602" width="43.8462" height="43.8462" filterUnits="userSpaceOnUse" color-interpolation-filters="sRGB">
<feFlood flood-opacity="0" result="BackgroundImageFix"/>
<feBlend mode="normal" in="SourceGraphic" in2="BackgroundImageFix" result="shape"/>
<feGaussianBlur stdDeviation="7.5" result="effect1_foregroundBlur_3030_17"/>
</filter>
</defs>
</svg>
