<svg width="22" height="21" viewBox="0 0 22 21" fill="none" xmlns="http://www.w3.org/2000/svg">
<path d="M10.9746 0.5C11.1047 0.5 11.2886 0.579112 11.3945 0.754883L15.7344 8.00586L15.8799 8.24902H21.002C21.224 8.24902 21.4911 8.46709 21.498 8.84082C21.4973 8.84343 21.4971 8.84711 21.4961 8.85059C21.4859 8.8845 21.4631 8.95718 21.4541 9.05371L18.9209 19.251L18.9189 19.2598L18.917 19.2676C18.763 19.9937 18.1553 20.4766 17.5098 20.4766H4.54004C3.89797 20.4766 3.3507 20.06 3.11914 19.3828L3.07715 19.2441L0.535156 9.01172L0.504883 8.89062L0.5 8.88477C0.499966 8.87605 0.5 8.86626 0.5 8.85547C0.500096 8.47278 0.773072 8.24902 0.998047 8.24902H6.07129L6.2168 8.00391L10.54 0.725586C10.646 0.586647 10.8373 0.500187 10.9746 0.5ZM10.9746 11.6768C9.55359 11.677 8.47949 12.9471 8.47949 14.3906C8.47957 15.8341 9.55364 17.1042 10.9746 17.1045C12.3958 17.1045 13.4706 15.8342 13.4707 14.3906C13.4707 12.947 12.3959 11.6768 10.9746 11.6768ZM10.5488 2.61621L7.55566 7.4873L7.08789 8.24902H14.8623L14.3945 7.4873L11.4014 2.61621L10.9746 1.92285L10.5488 2.61621Z" stroke="white"/>
</svg>
