<svg width="21" height="21" viewBox="0 0 21 21" fill="none" xmlns="http://www.w3.org/2000/svg">
<path d="M12.9102 1.01074C13.6993 0.439834 14.2564 0.430235 14.5615 0.59082C14.8676 0.752075 15.1762 1.21914 15.1572 2.19531V2.19629L15.0859 6.10645C15.0789 6.4737 15.1887 6.86444 15.3506 7.19922C15.5113 7.53145 15.7487 7.86045 16.0459 8.08203V8.08301L18.6025 10.0234L18.6035 10.0244C19.3526 10.5904 19.5281 11.1124 19.4678 11.458C19.4147 11.7614 19.1447 12.1325 18.4775 12.4102L18.167 12.5225L14.8379 13.5645H14.8369C14.4584 13.6838 14.1032 13.9361 13.8271 14.2246C13.5522 14.512 13.3155 14.8784 13.2158 15.2666H13.2148L12.4219 18.3008C12.1186 19.4554 11.6517 19.8358 11.335 19.8838C11.0192 19.9314 10.4625 19.7069 9.83594 18.6914L8.02148 15.75C7.79766 15.3864 7.44163 15.0963 7.06934 14.9023C6.74336 14.7325 6.36665 14.6168 5.99707 14.6045L5.83887 14.6055L2.39551 14.7803C1.20858 14.8398 0.706157 14.5105 0.564453 14.2217C0.422724 13.9327 0.468358 13.3319 1.24316 12.4268L1.24414 12.4277L3.28516 10.0547V10.0537C3.54441 9.75193 3.71299 9.35031 3.79492 8.95996C3.87669 8.57019 3.8834 8.13447 3.76367 7.75293H3.76465L2.72363 4.41895C2.44582 3.52241 2.60591 2.99299 2.85547 2.74609C3.10434 2.50014 3.6324 2.34651 4.52246 2.63867L7.56348 3.63965L7.56738 3.6416C7.91656 3.75343 8.32023 3.76325 8.6875 3.70703C9.05218 3.65119 9.43522 3.52139 9.73438 3.30176L12.9092 1.01172L12.9102 1.01074Z" stroke="white"/>
<path opacity="0.4" d="M16.0742 16.2832C16.1779 16.1794 16.3553 16.1794 16.459 16.2832L19.583 19.4102C19.6866 19.5142 19.6868 19.6929 19.583 19.7969C19.5272 19.8528 19.4607 19.8769 19.3906 19.877C19.3204 19.877 19.2532 19.8529 19.1973 19.7969L16.0742 16.6699C15.9703 16.5659 15.9704 16.3873 16.0742 16.2832Z" stroke="white"/>
</svg>
