<svg width="44" height="44" viewBox="0 0 44 44" fill="none" xmlns="http://www.w3.org/2000/svg">
<g filter="url(#filter0_f_3030_18)">
<circle cx="21.9997" cy="21.9997" r="6.92308" fill="#67C9F7" fill-opacity="0.49"/>
</g>
<path d="M15.5684 29.271H29.2139C29.2152 29.271 29.2289 29.2709 29.248 29.2915C29.2675 29.3125 29.2822 29.3457 29.2822 29.3853C29.2822 29.4248 29.2675 29.458 29.248 29.479C29.2289 29.4997 29.2152 29.4995 29.2139 29.4995H15.5684C15.5662 29.4995 15.5535 29.4987 15.5352 29.479C15.5157 29.458 15.5 29.4249 15.5 29.3853C15.5001 29.3457 15.5157 29.3125 15.5352 29.2915C15.5534 29.272 15.5662 29.271 15.5684 29.271Z" stroke="white"/>
<path d="M16.3262 18.7263H17.5391C17.6472 18.7263 17.7979 18.8291 17.7979 19.0457V26.1082C17.7977 26.3197 17.644 26.4275 17.5391 26.4275H16.3262C16.2213 26.4273 16.0685 26.3195 16.0684 26.1082V19.0457C16.0684 18.8341 16.2212 18.7265 16.3262 18.7263Z" stroke="white"/>
<path d="M21.7832 16.1147H22.9961C23.1011 16.1147 23.2549 16.2224 23.2549 16.4341V26.1099C23.2548 26.3215 23.101 26.4292 22.9961 26.4292H21.7832C21.6783 26.429 21.5254 26.3213 21.5254 26.1099V16.4341C21.5254 16.2225 21.6783 16.1149 21.7832 16.1147Z" stroke="white"/>
<path d="M27.2437 13.5H28.4565C28.5615 13.5 28.7153 13.6076 28.7153 13.8193V26.1084C28.7153 26.3201 28.5615 26.4277 28.4565 26.4277H27.2437C27.1387 26.4276 26.9858 26.3199 26.9858 26.1084V13.8193C26.9858 13.6078 27.1387 13.5002 27.2437 13.5Z" stroke="white"/>
<defs>
<filter id="filter0_f_3030_18" x="0.0766602" y="0.0766602" width="43.8462" height="43.8462" filterUnits="userSpaceOnUse" color-interpolation-filters="sRGB">
<feFlood flood-opacity="0" result="BackgroundImageFix"/>
<feBlend mode="normal" in="SourceGraphic" in2="BackgroundImageFix" result="shape"/>
<feGaussianBlur stdDeviation="7.5" result="effect1_foregroundBlur_3030_18"/>
</filter>
</defs>
</svg>
