<svg width="22" height="22" viewBox="0 0 22 22" fill="none" xmlns="http://www.w3.org/2000/svg">
<path d="M22 3.19355C21.9991 2.34685 21.6623 1.53511 21.0636 0.936406C20.4649 0.337703 19.6531 0.000939206 18.8065 0H3.19355C2.34685 0.000939206 1.53511 0.337703 0.936406 0.936406C0.337703 1.53511 0.000939206 2.34685 0 3.19355V4.6129C0.00158118 4.68737 0.0272251 4.75932 0.0730968 4.818L0.0677742 4.82155L2.75497 8.51613L0.0677742 12.2107L0.0730968 12.2143C0.0272251 12.2729 0.00158118 12.3449 0 12.4194V20.9355C0 21.2178 0.112154 21.4886 0.31179 21.6882C0.511425 21.8878 0.782189 22 1.06452 22H20.9355C21.2178 22 21.4886 21.8878 21.6882 21.6882C21.8878 21.4886 22 21.2178 22 20.9355V12.4194C21.9984 12.3449 21.9728 12.2729 21.9269 12.2143L21.9322 12.2107L19.245 8.51613L21.9322 4.82155L21.9269 4.818C21.9728 4.75932 21.9984 4.68737 22 4.6129V3.19355ZM12.0645 2.83871H9.93548C9.84137 2.83871 9.75112 2.87609 9.68457 2.94264C9.61803 3.00918 9.58064 3.09944 9.58064 3.19355V4.25806H0.738064C0.823319 3.6674 1.11839 3.12718 1.56928 2.73623C2.02018 2.34527 2.59676 2.12973 3.19355 2.12903H18.8065C19.4032 2.12973 19.9798 2.34527 20.4307 2.73623C20.8816 3.12718 21.1767 3.6674 21.2619 4.25806H12.4194V3.19355C12.4194 3.09944 12.382 3.00918 12.3154 2.94264C12.2489 2.87609 12.1586 2.83871 12.0645 2.83871ZM10.6452 5.32258V6.28845C10.5376 6.22666 10.4482 6.13768 10.386 6.03043C10.3237 5.92318 10.2907 5.80144 10.2903 5.67742V3.54839H11.7097V5.67742C11.7093 5.80144 11.6763 5.92318 11.614 6.03043C11.5518 6.13768 11.4624 6.22666 11.3548 6.28845V5.32258H10.6452ZM3.37416 8.87097H8.97103C8.87613 9.00282 8.79459 9.1438 8.72761 9.29181C8.27956 9.18625 7.81095 9.20766 7.37439 9.35364C6.93783 9.49962 6.5506 9.76439 6.25616 10.1182C5.90721 9.97627 5.5305 9.91569 5.15463 9.94109C4.77877 9.96649 4.41363 10.0772 4.08695 10.2648C3.76026 10.4524 3.48062 10.712 3.26925 11.0238C3.05789 11.3357 2.92035 11.6916 2.8671 12.0645H1.05174L3.37416 8.87097ZM12.7103 9.82548C12.7235 9.8737 12.7466 9.9186 12.7783 9.95724C12.81 9.99588 12.8495 10.0274 12.8943 10.0497C12.939 10.072 12.9879 10.0846 13.0379 10.0867C13.0878 10.0888 13.1376 10.0803 13.184 10.0618C13.5671 9.90866 13.9916 9.89429 14.3841 10.0212C14.7766 10.1481 15.1124 10.4082 15.3333 10.7566C15.3822 10.8331 15.4585 10.888 15.5467 10.9099C15.6348 10.9318 15.728 10.9191 15.807 10.8744C16.0506 10.7372 16.3231 10.6594 16.6024 10.6475C16.8817 10.6356 17.1599 10.6899 17.4142 10.8059C17.6686 10.9219 17.8919 11.0964 18.066 11.3151C18.2401 11.5339 18.3601 11.7906 18.4161 12.0645H3.58387C3.63992 11.7907 3.75988 11.534 3.93396 11.3153C4.10805 11.0966 4.33134 10.9221 4.58565 10.8061C4.83995 10.6901 5.11806 10.6358 5.39733 10.6477C5.67659 10.6595 5.9491 10.7372 6.19265 10.8744C6.27168 10.9191 6.36485 10.9318 6.45298 10.9099C6.5411 10.888 6.61746 10.8331 6.66635 10.7566C6.88726 10.4082 7.22304 10.1481 7.61555 10.0212C8.00806 9.89429 8.43258 9.90866 8.81561 10.0618C8.86204 10.0803 8.91185 10.0888 8.96179 10.0867C9.01172 10.0846 9.06065 10.072 9.10537 10.0497C9.1501 10.0274 9.1896 9.99588 9.2213 9.95724C9.253 9.9186 9.27618 9.8737 9.28932 9.82548C9.39092 9.44963 9.6135 9.11771 9.92265 8.88103C10.2318 8.64436 10.6103 8.51611 10.9996 8.51611C11.389 8.51611 11.7675 8.64436 12.0766 8.88103C12.3858 9.11771 12.6087 9.44963 12.7103 9.82548ZM21.2903 20.9355C21.2903 21.0296 21.2529 21.1198 21.1864 21.1864C21.1198 21.2529 21.0296 21.2903 20.9355 21.2903H1.06452C0.970407 21.2903 0.880152 21.2529 0.813607 21.1864C0.747062 21.1198 0.709677 21.0296 0.709677 20.9355V12.7742H21.2903V20.9355ZM20.9483 12.0645H19.1329C19.0796 11.6916 18.9421 11.3357 18.7307 11.0238C18.5194 10.712 18.2397 10.4524 17.9131 10.2648C17.5864 10.0772 17.2212 9.96649 16.8454 9.94109C16.4695 9.91569 16.0928 9.97627 15.7438 10.1182C15.4493 9.76414 15.0618 9.49921 14.625 9.35322C14.1881 9.20723 13.7192 9.18597 13.271 9.29181C13.2044 9.14386 13.1234 9.00288 13.029 8.87097H18.6258L20.9483 12.0645ZM18.6258 8.16129H12.2654C11.8841 7.9292 11.4463 7.80644 11 7.80644C10.5537 7.80644 10.1159 7.9292 9.73464 8.16129H3.37416L1.05174 4.96774H9.58064V5.67742C9.58064 6.05386 9.73018 6.41487 9.99636 6.68105C10.2625 6.94724 10.6236 7.09677 11 7.09677C11.3764 7.09677 11.7375 6.94724 12.0036 6.68105C12.2698 6.41487 12.4194 6.05386 12.4194 5.67742V4.96774H20.9483L18.6258 8.16129ZM18.8065 1.41935H3.19355C2.74323 1.41965 2.29809 1.51548 1.88754 1.70051C1.47699 1.88554 1.11036 2.15556 0.811871 2.49274C0.963684 1.97856 1.27756 1.52719 1.70674 1.20588C2.13592 0.88457 2.65742 0.710525 3.19355 0.709677H18.8065C19.3426 0.710525 19.8641 0.88457 20.2933 1.20588C20.7224 1.52719 21.0363 1.97856 21.1881 2.49274C20.8896 2.15556 20.523 1.88554 20.1125 1.70051C19.7019 1.51548 19.2568 1.41965 18.8065 1.41935Z" fill="white"/>
<path d="M1.77476 19.5157C1.96298 19.5157 2.14349 19.5904 2.27658 19.7235C2.40967 19.8566 2.48444 20.0371 2.48444 20.2253C2.48444 20.3194 2.52182 20.4097 2.58837 20.4762C2.65491 20.5428 2.74517 20.5802 2.83928 20.5802H19.1619C19.256 20.5802 19.3462 20.5428 19.4128 20.4762C19.4793 20.4097 19.5167 20.3194 19.5167 20.2253C19.5167 20.0371 19.5915 19.8566 19.7246 19.7235C19.8576 19.5904 20.0382 19.5157 20.2264 19.5157C20.3205 19.5157 20.4107 19.4783 20.4773 19.4117C20.5438 19.3452 20.5812 19.2549 20.5812 19.1608V14.9028C20.5812 14.8086 20.5438 14.7184 20.4773 14.6518C20.4107 14.5853 20.3205 14.5479 20.2264 14.5479C20.0382 14.5479 19.8576 14.4731 19.7246 14.3401C19.5915 14.207 19.5167 14.0265 19.5167 13.8382C19.5167 13.7441 19.4793 13.6539 19.4128 13.5873C19.3462 13.5208 19.256 13.4834 19.1619 13.4834H2.83928C2.74517 13.4834 2.65491 13.5208 2.58837 13.5873C2.52182 13.6539 2.48444 13.7441 2.48444 13.8382C2.48444 14.0265 2.40967 14.207 2.27658 14.3401C2.14349 14.4731 1.96298 14.5479 1.77476 14.5479C1.68065 14.5479 1.5904 14.5853 1.52385 14.6518C1.45731 14.7184 1.41992 14.8086 1.41992 14.9028V19.1608C1.41992 19.2549 1.45731 19.3452 1.52385 19.4117C1.5904 19.4783 1.68065 19.5157 1.77476 19.5157ZM9.93605 14.1931H12.0651V15.2576C12.0651 15.5399 11.9529 15.8107 11.7533 16.0103C11.5537 16.21 11.2829 16.3221 11.0006 16.3221C10.7182 16.3221 10.4475 16.21 10.2478 16.0103C10.0482 15.8107 9.93605 15.5399 9.93605 15.2576V14.1931ZM2.1296 15.2129C2.37488 15.149 2.59867 15.0207 2.77787 14.8415C2.95708 14.6622 3.08521 14.4384 3.14905 14.1931H9.22637V15.2576C9.22637 15.7281 9.4133 16.1794 9.74602 16.5121C10.0787 16.8449 10.53 17.0318 11.0006 17.0318C11.4711 17.0318 11.9224 16.8449 12.2551 16.5121C12.5878 16.1794 12.7748 15.7281 12.7748 15.2576V14.1931H18.8521C18.9159 14.4384 19.0441 14.6622 19.2233 14.8415C19.4025 15.0207 19.6263 15.149 19.8715 15.2129V18.8507C19.6263 18.9146 19.4025 19.0428 19.2233 19.2221C19.0441 19.4014 18.9159 19.6252 18.8521 19.8705H3.14905C3.08521 19.6252 2.95708 19.4014 2.77787 19.2221C2.59867 19.0428 2.37488 18.9146 2.1296 18.8507V15.2129Z" fill="white"/>
</svg>
